<?xml version="1.0" encoding="utf-8"?>
<!-- Generator: Adobe Illustrator 24.0.1, SVG Export Plug-In . SVG Version: 6.00 Build 0)  -->
<svg version="1.1" id="Layer_1" xmlns="http://www.w3.org/2000/svg" xmlns:xlink="http://www.w3.org/1999/xlink" x="0px" y="0px"
	 width="1024px" height="1024px" viewBox="0 0 1024 1024" style="enable-background:new 0 0 1024 1024;" xml:space="preserve">
<style type="text/css">
	.st0{fill:#131123;}
	.st1{fill:#FF6B4A;}
</style>
<g>
	<path class="st0" d="M712,1012H312c-165.7,0-300-134.3-300-300V312C12,146.3,146.3,12,312,12h400c165.7,0,300,134.3,300,300v400
		C1012,877.7,877.7,1012,712,1012z"/>
</g>
<g id="O">
	<path class="st1" d="M182.8,508.7c0-249.7,139.2-396.9,340.3-396.9s340.3,148,340.3,396.9c0,249.7-139.2,403.1-340.3,403.1
		S182.8,758.4,182.8,508.7z M722.7,508.7c0-173.2-78.4-278-199.6-278c-121.3,0-199.6,104.8-199.6,278s78.3,284.1,199.6,284.1
		S722.7,681.9,722.7,508.7z"/>
</g>
</svg>
