<?xml version="1.0" encoding="utf-8"?>
<!-- Generator: Adobe Illustrator 24.0.1, SVG Export Plug-In . SVG Version: 6.00 Build 0)  -->
<svg version="1.1" id="Layer_1" xmlns="http://www.w3.org/2000/svg" xmlns:xlink="http://www.w3.org/1999/xlink" x="0px" y="0px"
	 width="102px" height="32px" viewBox="0 0 102 32" style="enable-background:new 0 0 102 32;" xml:space="preserve">
<style type="text/css">
	.st0{fill:#007E6A;}
	.st1{fill:#C1FFFF;}
</style>
<g id="SQ">
	<path class="st0" d="M22.6,32H9.8c-5.3,0-9.6-4.3-9.6-9.6V9.6C0.2,4.3,4.5,0,9.8,0h12.8c5.3,0,9.6,4.3,9.6,9.6v12.8
		C32.2,27.7,27.9,32,22.6,32z"/>
</g>
<g id="O">
	<path class="st1" d="M5.3,15.9c0-8,4.5-12.7,10.9-12.7s10.9,4.7,10.9,12.7c0,8-4.5,12.9-10.9,12.9S5.3,23.9,5.3,15.9z M22.6,15.9
		c0-5.5-2.5-8.9-6.4-8.9c-3.9,0-6.4,3.4-6.4,8.9s2.5,9.1,6.4,9.1S22.6,21.4,22.6,15.9z"/>
</g>
<g id="DEX">
	<path class="st0" d="M38.9,3.2h6.8c7.8,0,12.5,4.2,12.5,12.7s-4.6,12.9-12.2,12.9h-7.1V3.2z M45.4,25.1c5.2,0,8.1-2.9,8.1-9.2
		c0-6.3-3-9-8.1-9h-2v18.2H45.4z"/>
	<path class="st0" d="M63.3,3.2h15.4V7H67.9v6.6h9.2v3.8h-9.2V25h11.3v3.8H63.3V3.2z"/>
	<path class="st0" d="M88.9,15.6L82.1,3.2h5L90,8.9c0.6,1.2,1.2,2.4,1.9,3.9h0.2c0.6-1.6,1.2-2.7,1.7-3.9l2.7-5.7h4.8l-6.8,12.6
		l7.3,13h-5l-3.1-6c-0.7-1.3-1.3-2.6-2.1-4.2h-0.2c-0.7,1.6-1.3,2.9-1.9,4.2l-3,6h-4.8L88.9,15.6z"/>
</g>
</svg>
