<?xml version="1.0" encoding="utf-8"?>
<!-- Generator: Adobe Illustrator 24.0.1, SVG Export Plug-In . SVG Version: 6.00 Build 0)  -->
<svg version="1.1" id="Layer_1" xmlns="http://www.w3.org/2000/svg" xmlns:xlink="http://www.w3.org/1999/xlink" x="0px" y="0px"
	 width="103px" height="30px" viewBox="0 0 103 30" style="enable-background:new 0 0 103 30;" xml:space="preserve">
<style type="text/css">
	.st0{fill:#727FFF;}
</style>
<g>
	<path id="p" class="st0" d="M24.8,3.8L25.7,0H28l-1.6,3.8H24.8z"/>
	<path id="O" class="st0" d="M0.3,14.9C0.3,5.5,5.5,0,13,0s12.8,5.5,12.8,14.9C25.8,24.2,20.6,30,13,30S0.3,24.2,0.3,14.9z
		 M20.5,14.9c0-6.5-2.9-10.4-7.5-10.4S5.5,8.4,5.5,14.9S8.5,25.5,13,25.5S20.5,21.4,20.5,14.9z"/>
	<path id="D" class="st0" d="M31.6,0.5h7.7c8.9,0,14.1,4.8,14.1,14.4s-5.2,14.6-13.8,14.6h-8V0.5z M39,25.3c5.8,0,9.2-3.3,9.2-10.4
		c0-7.1-3.3-10.2-9.2-10.2h-2.2v20.6H39z"/>
	<path id="E" class="st0" d="M59.3,0.5h17.4v4.3H64.4v7.4h10.4v4.3H64.4v8.6h12.7v4.3H59.3V0.5z"/>
	<path id="X" class="st0" d="M88.2,14.5l-7.7-14h5.7L89.4,7c0.7,1.3,1.3,2.7,2.2,4.4h0.2c0.7-1.8,1.3-3.1,1.9-4.4l3.1-6.4h5.5
		l-7.7,14.3l8.2,14.7H97l-3.5-6.8c-0.7-1.5-1.5-2.9-2.3-4.7H91c-0.8,1.8-1.5,3.2-2.1,4.7l-3.4,6.8H80L88.2,14.5z"/>
</g>
</svg>
